<?xml version="1.0" standalone="no"?>
<!DOCTYPE svg PUBLIC "-//W3C//DTD SVG 20010904//EN"
 "http://www.w3.org/TR/2001/REC-SVG-20010904/DTD/svg10.dtd">
<svg version="1.0" xmlns="http://www.w3.org/2000/svg"
 width="700.000000pt" height="700.000000pt" viewBox="0 0 700.000000 700.000000"
 preserveAspectRatio="xMidYMid meet">
<metadata>
Created by potrace 1.14, written by Peter Selinger 2001-2017
</metadata>
<g transform="translate(0.000000,700.000000) scale(0.100000,-0.100000)"
fill="#000000" stroke="none">
<path d="M3408 6895 c-2 -1 -59 -5 -128 -9 -125 -6 -145 -8 -275 -27 -119 -17
-137 -20 -249 -45 -430 -95 -856 -283 -1214 -535 -62 -44 -121 -87 -130 -94
-159 -129 -214 -178 -317 -280 -77 -77 -135 -140 -259 -285 -45 -53 -197 -269
-252 -360 -81 -134 -193 -356 -254 -505 -76 -185 -160 -487 -195 -700 -9 -55
-18 -110 -20 -122 -2 -12 -6 -57 -10 -100 -4 -43 -9 -94 -11 -113 -4 -44 -4
-426 0 -460 2 -14 6 -61 10 -106 4 -44 8 -89 10 -100 2 -10 7 -41 10 -69 6
-41 29 -165 51 -269 30 -137 100 -356 166 -518 172 -417 405 -771 726 -1099
128 -131 156 -151 176 -127 30 40 113 80 254 123 8 3 9 14 3 37 -5 18 -11 56
-15 83 -3 28 -8 64 -10 80 -29 185 -43 662 -30 995 6 166 15 333 21 397 5 48
1 77 -15 125 -20 62 -39 140 -46 188 -2 14 -6 39 -9 55 -6 38 -14 111 -22 195
-6 76 -13 440 -8 440 2 0 23 -42 48 -92 106 -222 279 -379 523 -476 129 -51
603 -203 630 -202 4 1 -57 26 -137 56 -80 30 -158 61 -175 68 -16 8 -70 30
-120 51 -209 84 -350 170 -456 274 -128 127 -214 257 -266 402 -24 67 -26 89
-28 232 -1 87 2 181 6 210 14 105 21 143 34 202 8 33 17 76 20 95 3 19 8 42
10 50 3 8 7 35 10 59 3 24 8 47 10 51 12 19 6 142 -10 205 -13 49 -29 83 -55
115 -70 84 -119 194 -137 309 -11 64 -8 331 4 359 l9 24 35 -32 c190 -176 238
-230 319 -360 29 -47 54 -87 56 -89 2 -2 25 11 51 29 67 44 289 151 404 194
191 70 424 128 527 129 14 0 14 0 3 29 -30 79 -36 273 -11 374 24 98 45 157
57 161 17 6 128 -73 167 -118 83 -96 120 -204 120 -351 1 -65 5 -108 11 -108
6 0 26 4 45 10 19 5 54 12 78 15 24 3 80 13 125 21 93 16 307 50 382 60 28 3
59 8 70 10 10 2 46 6 80 9 33 4 96 10 140 14 82 8 248 6 320 -4 22 -3 58 -8
80 -10 22 -3 51 -8 65 -10 14 -3 41 -7 60 -10 19 -3 58 -10 85 -15 28 -6 61
-12 75 -15 65 -12 262 -81 333 -116 92 -45 128 -69 182 -120 22 -20 75 -54
118 -74 120 -58 187 -152 187 -265 0 -21 16 -74 35 -120 60 -141 46 -167 -92
-168 -96 -1 -135 11 -178 54 -25 24 -37 29 -94 31 -86 4 -121 16 -158 56 -40
42 -55 92 -51 168 l3 61 -50 20 c-64 26 -214 33 -306 13 -179 -38 -416 -160
-623 -320 -24 -18 -27 -15 59 -48 265 -102 464 -369 554 -747 l27 -115 24 47
c82 164 317 269 448 200 86 -46 176 -116 267 -208 107 -109 101 -101 168 -206
61 -96 115 -205 147 -298 12 -36 26 -74 30 -85 9 -23 30 -98 36 -129 2 -12 10
-55 18 -96 9 -41 18 -97 22 -125 4 -27 8 -57 9 -66 8 -42 18 -268 17 -379 -1
-195 -9 -299 -42 -560 -13 -101 -13 -100 -35 -215 -10 -49 -18 -97 -19 -105
-4 -30 -39 -179 -72 -301 -19 -69 -34 -131 -34 -138 0 -7 25 -46 55 -86 30
-41 55 -79 55 -85 0 -5 3 -10 8 -10 4 0 25 -27 47 -60 22 -33 45 -60 50 -60 6
0 71 62 145 137 314 320 543 663 720 1078 75 177 159 448 195 635 11 59 15 80
29 170 14 86 19 136 31 280 6 69 6 387 0 460 -6 81 -14 157 -19 190 -2 14 -7
46 -10 71 -71 518 -285 1049 -598 1486 -318 444 -760 823 -1237 1063 -277 138
-637 261 -892 304 -19 3 -43 7 -54 10 -22 4 -148 22 -211 30 -110 13 -457 29
-466 21z"/>
<path d="M3410 5210 c13 -19 67 -78 119 -131 206 -206 266 -276 360 -418 95
-144 153 -277 193 -441 20 -84 17 -329 -5 -409 -39 -143 -102 -254 -251 -441
-50 -63 -93 -117 -97 -120 -11 -9 -116 -164 -142 -210 -59 -103 -51 -109 29
-25 200 208 440 524 519 682 50 100 68 180 68 308 1 177 -17 248 -105 429
-101 206 -225 361 -458 571 -36 32 -107 99 -159 149 -57 55 -85 77 -71 56z"/>
<path d="M3375 4519 c-9 -14 4 -326 15 -354 32 -85 105 -59 130 47 17 69 8
154 -24 214 -32 61 -45 78 -73 92 -27 15 -40 15 -48 1z"/>
<path d="M1924 4189 c-56 -20 -70 -169 -25 -261 40 -83 143 -136 218 -111 39
13 40 44 5 112 -16 31 -35 74 -42 96 -36 118 -101 185 -156 164z"/>
<path d="M3025 3438 c-132 -15 -214 -50 -258 -110 -20 -26 -20 -27 -1 -56 43
-69 187 -152 262 -152 91 0 142 46 186 169 23 63 25 79 16 102 -7 15 -19 31
-28 34 -38 15 -111 20 -177 13z"/>
<path d="M5604 3175 c3 -16 8 -46 11 -65 3 -19 7 -48 10 -65 6 -35 7 -276 1
-320 -2 -16 -7 -57 -11 -90 -3 -33 -8 -71 -10 -85 -13 -80 -25 -161 -30 -205
-7 -55 -62 -405 -70 -445 -3 -14 -10 -52 -16 -85 -20 -111 -69 -303 -104 -412
-89 -269 -195 -403 -360 -453 -43 -14 -58 -14 -109 -2 -122 28 -159 64 -242
237 -82 172 -164 411 -189 550 -43 245 -52 320 -55 495 l-2 85 -15 -50 c-16
-54 -24 -303 -11 -385 16 -107 67 -300 108 -414 10 -28 39 -112 65 -186 89
-256 145 -343 254 -392 99 -45 305 -15 367 54 46 50 144 208 192 308 55 115
94 224 116 322 8 34 26 117 41 183 25 112 48 232 61 315 3 19 7 46 10 60 2 14
8 52 14 85 5 33 12 71 15 85 5 26 12 73 25 160 9 59 6 322 -5 455 -8 97 -30
213 -51 257 l-15 33 5 -30z"/>
<path d="M2231 1867 c-18 -106 -35 -201 -37 -212 -2 -11 -25 -137 -50 -280
-25 -143 -48 -263 -51 -267 -2 -5 7 -8 20 -8 32 0 99 -50 126 -94 l23 -36 79
0 c43 0 79 2 79 4 0 2 -9 23 -20 48 -17 39 -62 201 -74 268 -17 100 -24 151
-32 230 -3 36 -8 76 -10 90 -2 14 -7 120 -10 235 -4 116 -7 211 -8 212 -1 1
-16 -85 -35 -190z"/>
</g>
</svg>
