<?xml version="1.0" standalone="no"?>
<!DOCTYPE svg PUBLIC "-//W3C//DTD SVG 20010904//EN"
 "http://www.w3.org/TR/2001/REC-SVG-20010904/DTD/svg10.dtd">
<svg version="1.0" xmlns="http://www.w3.org/2000/svg"
 width="700.000000pt" height="700.000000pt" viewBox="0 0 700.000000 700.000000"
 preserveAspectRatio="xMidYMid meet">
<metadata>
Created by potrace 1.14, written by Peter Selinger 2001-2017
</metadata>
<g transform="translate(0.000000,700.000000) scale(0.100000,-0.100000)"
fill="#000000" stroke="none">
<path d="M1150 6630 c-405 -87 -694 -386 -786 -810 -5 -19 -9 -532 -11 -1140
-3 -834 -1 -1112 8 -1135 31 -79 140 -148 234 -148 92 0 199 65 231 142 12 28
14 203 14 1095 0 1162 -2 1114 60 1235 71 142 218 245 379 267 86 12 4461 8
4524 -5 191 -36 360 -203 398 -393 10 -52 16 -4498 5 -4543 -14 -64 -22 -86
-50 -145 -39 -82 -133 -178 -214 -219 -130 -65 47 -61 -2410 -61 -1572 0
-2247 3 -2284 11 -148 30 -289 139 -352 272 -50 105 -56 152 -56 414 0 275 -4
298 -71 365 -97 97 -250 99 -347 5 -67 -65 -67 -63 -69 -372 -2 -297 5 -373
48 -504 24 -73 92 -212 123 -252 12 -15 30 -39 41 -55 37 -53 156 -164 229
-213 142 -96 275 -147 441 -169 72 -10 4580 -9 4640 1 312 50 596 251 744 527
39 73 84 194 95 255 3 17 9 41 13 55 9 35 12 4533 3 4600 -27 185 -90 351
-191 501 -128 192 -373 361 -589 408 -25 5 -58 13 -75 18 -16 4 -1067 8 -2335
10 -2203 1 -2309 1 -2390 -17z"/>
<path d="M5030 4684 c-52 -13 -104 -26 -115 -28 -46 -10 -406 -98 -475 -116
-41 -10 -86 -21 -100 -24 -14 -3 -72 -17 -130 -31 -58 -15 -109 -28 -115 -29
-5 -2 -38 -9 -73 -16 -139 -29 -207 -133 -164 -251 5 -12 143 -157 308 -322
164 -166 268 -273 229 -240 -38 34 -108 100 -155 147 -46 47 -88 86 -92 86 -5
0 -353 -345 -774 -766 l-766 -766 73 -75 c95 -95 169 -134 266 -137 71 -3 162
19 205 48 12 8 325 317 693 685 l671 670 143 -144 c122 -123 149 -145 187
-154 92 -23 173 28 213 134 12 32 20 60 17 62 -3 3 -1 16 4 29 7 18 51 196 75
304 2 8 37 152 79 320 41 168 78 320 81 339 3 19 8 38 10 41 7 11 18 82 17
104 -2 36 -24 75 -57 101 -72 54 -130 61 -255 29z"/>
<path d="M1590 3843 c-37 -11 -97 -39 -120 -56 -35 -26 -420 -397 -620 -597
-244 -244 -440 -450 -468 -492 -55 -84 -33 -225 49 -307 76 -76 208 -93 288
-37 20 14 240 231 490 481 l455 455 467 -467 c257 -257 471 -469 476 -470 4
-2 85 75 180 170 l172 173 -542 540 c-298 298 -555 550 -572 561 -47 31 -115
50 -180 50 -33 0 -67 -2 -75 -4z"/>
</g>
</svg>
